<?xml version="1.0" encoding="UTF-8"?>
<svg version="1.1" xmlns="http://www.w3.org/2000/svg" width="512" height="512">
<path d="M0 0 C0.64514484 -0.00235223 1.29028968 -0.00470446 1.95498437 -0.00712797 C4.11963427 -0.01379191 6.28422378 -0.01336054 8.44888306 -0.01294994 C10.01548319 -0.0162502 11.58208248 -0.01997611 13.14868069 -0.02409142 C17.45628687 -0.03410126 21.76387913 -0.03782658 26.07149529 -0.04048073 C30.7165589 -0.04438682 35.36161151 -0.05396497 40.00666809 -0.0626936 C51.22609961 -0.08244977 62.44553203 -0.09252331 73.6649766 -0.10142139 C78.95011358 -0.10580582 84.23524955 -0.11117224 89.52038574 -0.11641026 C107.09247123 -0.13342196 124.6645561 -0.14791564 142.23664856 -0.155159 C146.79600017 -0.15706885 151.35535178 -0.15898919 155.91470337 -0.16094494 C157.04789005 -0.16142868 158.18107674 -0.16191242 159.34860241 -0.16241082 C177.70123529 -0.17070929 196.05380295 -0.19604339 214.40640736 -0.22852562 C233.25410656 -0.26161178 252.10177264 -0.27960918 270.94950104 -0.28280324 C281.52955673 -0.28496693 292.10951732 -0.29369493 302.68954468 -0.31926441 C311.70092619 -0.34099268 320.71218951 -0.34901136 329.72359425 -0.33929763 C334.31863656 -0.33475907 338.9134351 -0.3366133 343.50844383 -0.35605907 C347.72185946 -0.3737354 351.93485429 -0.37265704 356.14827466 -0.35716178 C357.66584824 -0.35479247 359.18345131 -0.35907391 360.70097995 -0.37099043 C378.85706496 -0.50463678 393.71537108 4.84076136 406.95913696 17.42328358 C419.4207803 30.87333098 422.7830479 45.75288863 422.71809387 63.48215199 C422.7196833 65.0522055 422.72214823 66.62225833 422.72541028 68.19230926 C422.73181012 72.49528234 422.72576622 76.79816101 422.717646 81.10112786 C422.71105822 85.74600187 422.71601981 90.3908655 422.7195282 95.03574085 C422.72456632 104.12998853 422.71893357 113.2241998 422.7096779 122.31844296 C422.69928836 132.90773218 422.69936423 143.49701355 422.69985048 154.08630691 C422.70035097 172.97809979 422.6911926 191.86987572 422.67666626 210.76166248 C422.66257511 229.09695208 422.65549567 247.43222677 422.65615845 265.76752186 C422.6561984 266.89708597 422.65623836 268.02665008 422.65627953 269.19044341 C422.65631988 270.31804792 422.65636024 271.44565242 422.65640181 272.60742676 C422.65709152 293.47845678 422.65120292 314.34948047 422.6422486 335.22050843 C422.63923144 342.60364321 422.63816894 349.98677682 422.63771629 357.36991215 C422.6370344 366.36455952 422.632573 375.35919621 422.62338348 384.35383905 C422.61876442 388.94389566 422.61572041 393.5339386 422.61697769 398.12399769 C422.61807248 402.32446461 422.61455581 406.52490131 422.60732917 410.72536193 C422.6055156 412.24607979 422.60538578 413.76680077 422.60709646 415.28751875 C422.60916286 417.35294161 422.6050941 419.41826552 422.59949017 421.48367977 C422.59878574 422.63141467 422.59808132 423.77914957 422.59735554 424.96166432 C422.47085571 428.13422108 422.47085571 428.13422108 421.88728601 431.42173851 C421.17841708 434.13225688 421.17841708 434.13225688 422.67933655 436.18448353 C423.3033284 436.7929311 423.92732025 437.40137867 424.57022095 438.02826405 C425.2710228 438.72853718 425.97182465 439.42881031 426.69386292 440.15030384 C427.46460648 440.8849184 428.23535004 441.61953297 429.02944946 442.37640858 C429.80772598 443.14478046 430.5860025 443.91315235 431.38786316 444.70480824 C433.87876244 447.15650619 436.39288021 449.58276984 438.90835571 452.00922108 C440.6006971 453.66645702 442.2914733 455.32529292 443.98062134 456.98578358 C448.12604603 461.05400624 452.29080199 465.10160426 456.47085571 469.13422108 C449.70438063 477.218287 442.28016263 484.62104171 434.85708618 492.09808826 C433.17399038 493.7978743 431.49629635 495.50302506 429.82388306 497.21332264 C427.40300696 499.68862703 424.96639722 502.14738405 422.52554321 504.60297108 C421.77755463 505.37362904 421.02956604 506.14428699 420.25891113 506.93829823 C419.55783234 507.63652699 418.85675354 508.33475574 418.13442993 509.05414295 C417.52187347 509.67478626 416.90931702 510.29542957 416.27819824 510.93488026 C414.47085571 512.13422108 414.47085571 512.13422108 412.45343018 512.02988148 C410.10261081 510.96786043 408.8364517 509.77775021 407.08609009 507.8837328 C406.44441895 507.19987507 405.8027478 506.51601734 405.14163208 505.81143665 C404.45621338 505.06975239 403.77079468 504.32806812 403.06460571 503.56390858 C401.58439391 502.01163917 400.10257075 500.46090502 398.61929321 498.91156483 C396.29057286 496.46557432 393.97338607 494.01196257 391.68276978 491.53021717 C389.46488497 489.13602916 387.20720194 486.78594029 384.93960571 484.43890858 C384.27038086 483.69317585 383.60115601 482.94744312 382.91165161 482.17911243 C379.0870731 478.27057884 379.0870731 478.27057884 373.94322139 477.05611211 C372.55317788 477.24558362 372.55317788 477.24558362 371.13505268 477.43888283 C363.88541672 478.24551876 356.71052525 478.27671412 349.42378235 478.26793385 C347.93506256 478.26980591 346.44634327 478.27210817 344.95762473 478.27479917 C340.89772231 478.28087458 336.8378406 478.28078864 332.77793467 478.27960479 C328.38722142 478.27939971 323.99651464 478.28492975 319.60580444 478.28966236 C311.01576717 478.29794566 302.42573676 478.30071613 293.83569583 478.30127474 C286.85003028 478.30175093 279.86436699 478.30381079 272.87870216 478.30697536 C253.04873599 478.31577499 233.21877522 478.32039573 213.38880708 478.31964489 C212.32122737 478.31960493 211.25364765 478.31956498 210.15371704 478.31952381 C209.08482578 478.31948293 208.01593453 478.31944205 206.91465262 478.31939993 C189.59201549 478.31899348 172.2694001 478.32856461 154.94676926 478.34266218 C137.13618993 478.35704188 119.3256212 478.36393151 101.51503593 478.3630684 C91.52526513 478.36273702 81.53551713 478.36545831 71.54575157 478.37624645 C63.04113205 478.38537237 54.53654568 478.3875095 46.03192338 478.38073703 C41.69791322 478.3774826 37.36396657 478.37737606 33.02996254 478.38609028 C29.0530589 478.39400388 25.07626863 478.39247478 21.0993676 478.38380615 C19.67012784 478.3822818 18.24087941 478.38404649 16.81164988 478.38966622 C-2.87916582 478.46188685 -19.91519879 476.13327071 -35.52914429 463.13422108 C-36.1749646 462.60183826 -36.82078491 462.06945545 -37.48617554 461.52093983 C-48.94517633 451.09661179 -54.40924393 436.26537634 -55.52914429 421.13422108 C-55.67280007 416.18386167 -55.66871234 411.23459703 -55.66285706 406.28259754 C-55.66472744 404.77854234 -55.66702906 403.27448762 -55.66972238 401.77043366 C-55.67581859 397.65428576 -55.67570936 393.53815823 -55.674528 389.42200685 C-55.67432344 384.97606391 -55.679848 380.53012742 -55.68458557 376.08418751 C-55.69288067 367.38010871 -55.69563989 358.67603668 -55.69619795 349.97195426 C-55.69667364 342.89466659 -55.69873104 335.81738115 -55.70189857 328.74009418 C-55.71070196 308.66092214 -55.71531843 288.58175544 -55.7145681 268.50258145 C-55.71452814 267.4208321 -55.71448819 266.33908274 -55.71444702 265.22455311 C-55.71440614 264.14147827 -55.71436526 263.05840342 -55.71432314 261.94250813 C-55.71391674 244.39200084 -55.72348567 226.84151501 -55.73758539 209.29101393 C-55.75195904 191.2567968 -55.75885503 173.22259013 -55.75799161 155.18836713 C-55.75765999 145.06894763 -55.76039187 134.94955063 -55.77116966 124.8301363 C-55.78028766 116.21412968 -55.78243923 107.59815577 -55.77566024 98.98214641 C-55.77240163 94.58967249 -55.77231448 90.19726127 -55.78101349 85.80479336 C-55.78890859 81.77668006 -55.78741652 77.74867887 -55.77872936 73.72056821 C-55.77720097 72.27041314 -55.77898532 70.82024957 -55.78458943 69.37010452 C-55.86105866 48.16266073 -51.9180748 31.24907415 -37.21664429 15.38422108 C-27.04295441 5.76420139 -13.99795679 0.02180026 0 0 Z M192.47085571 104.13422108 C192.47085571 192.90422108 192.47085571 281.67422108 192.47085571 373.13422108 C249.90227999 379.58216933 249.90227999 379.58216933 317.04898071 361.94672108 C327.7992571 348.24307205 327.62842564 329.75493766 327.67398071 313.21234608 C327.67680809 312.51084179 327.67963547 311.8093375 327.68254852 311.08657551 C327.69743985 307.37458911 327.70673292 303.66264057 327.71109009 299.95062733 C327.71656334 296.16090452 327.74059618 292.37154298 327.76906204 288.58193302 C327.78787931 285.62698891 327.79290401 282.67212862 327.79442596 279.71712971 C327.79740964 278.32197309 327.80528852 276.92681636 327.81861115 275.53172016 C327.93183185 262.76643821 327.52005919 249.01717139 318.47085571 239.13422108 C313.80689828 234.90780057 307.96298117 230.13422108 301.47085571 230.13422108 C301.47085571 229.47422108 301.47085571 228.81422108 301.47085571 228.13422108 C302.05093384 227.96406483 302.63101196 227.79390858 303.22866821 227.61859608 C311.44757123 225.06883738 317.61119498 221.36211084 322.47085571 214.13422108 C325.75225631 207.46724844 327.56952213 201.12391469 327.64785767 193.67987537 C327.6606929 192.61073399 327.67352814 191.5415926 327.68675232 190.44005299 C327.69413925 189.29112064 327.70152618 188.1421883 327.70913696 186.95843983 C327.72124458 185.16150433 327.72124458 185.16150433 327.7335968 183.3282671 C327.74742159 180.78890897 327.75815091 178.24953238 327.76602173 175.71014881 C327.77749018 173.13750149 327.7978593 170.56487698 327.82754517 167.99237537 C328.59480199 140.62452929 328.59480199 140.62452929 317.22085571 116.44672108 C287.59541298 91.53441696 220.52296168 104.13422108 192.47085571 104.13422108 Z M55.22085571 113.25922108 C39.82193041 129.35809753 39.31775879 151.44751564 39.32559204 172.35150623 C39.32259388 173.96099391 39.31918986 175.57048088 39.31541443 177.17996693 C39.30663571 181.52329756 39.30423888 185.86660846 39.30359864 190.20994711 C39.3028845 192.93267645 39.30074329 195.65540089 39.29810143 198.37812901 C39.28886733 207.90311212 39.28476399 217.4280813 39.28555298 226.95306873 C39.28615281 235.78880471 39.27561447 244.62447945 39.25980932 253.46019995 C39.24667011 261.08100944 39.24137176 268.70179908 39.24200839 276.3226198 C39.24226156 280.85860343 39.23951142 285.3945326 39.22883034 289.9305048 C39.21904156 294.20369632 39.21914275 298.47678251 39.22634697 302.74997807 C39.22737966 304.30380377 39.22510991 305.85763641 39.21898651 307.41145039 C39.18946772 315.43183756 39.45677441 323.31694577 40.37666321 331.29007435 C40.49610219 332.32646815 40.49610219 332.32646815 40.61795408 333.3837992 C41.94415408 343.83613008 45.14600668 355.00317295 53.62319946 361.88031483 C76.13186588 376.50912396 112.62289662 375.71817043 138.22085571 370.88422108 C146.83854034 368.75022097 153.21375059 365.70967812 158.25991821 358.22406483 C169.32832045 339.12214483 165.60910473 311.35013705 165.53952026 290.15320301 C165.52913396 286.64623099 165.52463492 283.13925116 165.51968384 279.63226795 C165.50962092 272.79954619 165.49003081 265.96694737 165.47085571 259.13422108 C151.28085571 259.13422108 137.09085571 259.13422108 122.47085571 259.13422108 C122.44507446 263.79160389 122.41929321 268.4489867 122.39273071 273.24750233 C122.36756726 276.19612532 122.34123863 279.14464522 122.31069946 282.09320545 C122.26232579 286.77444334 122.21829635 291.45544265 122.19985962 296.13690662 C122.18472724 299.91082434 122.15034423 303.68411845 122.10254669 307.4577589 C122.08769726 308.89821614 122.07981266 310.33876239 122.07897186 311.77929592 C122.07661154 313.79525192 122.04730266 315.81112212 122.01675415 317.82684803 C122.00343048 319.5489323 122.00343048 319.5489323 121.98983765 321.30580616 C121.47085571 324.13422108 121.47085571 324.13422108 119.6010437 325.98058033 C112.2454897 329.96410989 102.48489793 329.70411244 94.47085571 328.13422108 C91.71694946 327.27484608 91.71694946 327.27484608 89.47085571 326.13422108 C88.33356929 322.7223618 88.3363451 320.10425054 88.32368469 316.5051012 C88.320008 315.82819607 88.31633132 315.15129093 88.31254321 314.45387352 C88.3015112 312.18081114 88.2976634 309.90779449 88.29385376 307.63470936 C88.28758886 306.00693078 88.28094204 304.37915364 88.27394104 302.75137806 C88.25653672 298.32574627 88.24598133 293.90012528 88.23773551 289.47446775 C88.23258527 286.71033287 88.22650962 283.94620134 88.22022438 281.18206882 C88.20117585 272.53604633 88.18694269 263.89003237 88.17861241 255.24399292 C88.16883327 245.2588436 88.14249473 235.27391555 88.10211152 225.28884423 C88.07197584 217.57326858 88.05714606 209.85775647 88.0538314 202.1421231 C88.05147847 197.53254848 88.04248623 192.92321035 88.01737022 188.31369877 C87.99412824 183.9781899 87.98984052 179.64307392 88.00013161 175.30751896 C88.00062799 173.71639673 87.99427747 172.1252554 87.98057556 170.53419209 C87.96291096 168.36142481 87.96993416 166.19007596 87.98310852 164.01730824 C87.98072017 162.80167257 87.97833181 161.58603691 87.97587109 160.3335638 C88.56926075 156.49817821 89.79029808 154.88706149 92.47085571 152.13422108 C97.90906947 148.1915161 104.02206751 148.36509955 110.47085571 149.13422108 C115.33544876 150.64713279 118.87577814 152.66324784 121.47085571 157.13422108 C121.79598133 160.09872051 121.95941483 162.86992508 121.98257446 165.83734608 C121.99921143 166.58032948 122.01584839 167.32331287 122.0329895 168.08881092 C122.09064931 170.85366222 122.12300676 173.61899454 122.15835571 176.38422108 C122.26148071 182.57172108 122.36460571 188.75922108 122.47085571 195.13422108 C136.66085571 195.13422108 150.85085571 195.13422108 165.47085571 195.13422108 C165.49148071 189.21484608 165.51210571 183.29547108 165.53335571 177.19672108 C165.54245972 175.36762196 165.55156372 173.53852283 165.5609436 171.65399647 C166.63742872 142.45635148 166.63742872 142.45635148 156.47085571 116.13422108 C136.85353546 96.51690083 76.94782755 99.05312411 55.22085571 113.25922108 Z " fill="#000000" transform="translate(55.529144287109375,-0.13422107696533203)"/>
<path d="M0 0 C20.47619048 0 20.47619048 0 26 2 C29.039397 5.86178965 29.38555224 8.90944875 29.41992188 13.74633789 C29.42839142 14.40388565 29.43686096 15.06143341 29.44558716 15.73890686 C29.46888108 17.90035629 29.46998151 20.06109111 29.46875 22.22265625 C29.47585429 23.73050723 29.48355368 25.23835551 29.49182129 26.74620056 C29.50524711 29.9009453 29.50684265 33.05543982 29.50097656 36.21020508 C29.49507038 40.25135913 29.52571683 44.29131593 29.56609344 48.3322382 C29.59194542 51.4438269 29.59485045 54.55512589 29.59120178 57.66680717 C29.59289422 59.15676327 29.60254887 60.64673257 29.62034607 62.13658333 C29.64249854 64.21955786 29.63285939 66.30009011 29.61523438 68.38305664 C29.61728882 69.56710587 29.61934326 70.75115509 29.62145996 71.97108459 C29 75 29 75 24 79 C16.08 79 8.16 79 0 79 C0 52.93 0 26.86 0 0 Z " fill="#000000" transform="translate(301,251)"/>
<path d="M0 0 C23 0 23 0 28 3 C29.12393108 6.37179323 29.14757697 8.96443334 29.17700195 12.51928711 C29.18357315 13.17654282 29.19014435 13.83379852 29.19691467 14.51097107 C29.21660486 16.6830965 29.22829856 18.85515305 29.23828125 21.02734375 C29.24235678 21.76981417 29.2464323 22.51228458 29.25063133 23.2772541 C29.27147048 27.20460862 29.28578336 31.13192837 29.29516602 35.05932617 C29.30624622 39.11600192 29.34067005 43.17213152 29.38033772 47.22861385 C29.40646808 50.34872972 29.41485445 53.46871446 29.41844749 56.58893013 C29.42332017 58.08447536 29.43495363 59.58001446 29.45348549 61.0754528 C29.47781027 63.16785102 29.4769257 65.25882233 29.4699707 67.35131836 C29.47877007 69.13644081 29.47877007 69.13644081 29.48774719 70.95762634 C28.90224412 74.60976241 27.87683015 75.75650867 25 78 C21.9907856 79.15739015 19.07867866 79.13434017 15.875 79.125 C14.57175781 79.12886719 14.57175781 79.12886719 13.2421875 79.1328125 C8.81571557 78.95148714 4.40819811 78.44081981 0 78 C0 52.26 0 26.52 0 0 Z " fill="#000000" transform="translate(301,142)"/>
</svg>
